PathFileType	4	(X/Y/Z)	C:/Users/beibeiliu/ov580/test_trc/User3\sequence.14_training_dense_left.trc
DataRate	CameraRate	NumFrames	NumMarkers	Units	OrigDataRate	OrigDataStartFrame	OrigNumFrames
120	120	13	19	mm	120	216	246
Frame#	Time	ThumbCMC			ThumbMCP			ThumbIP			ThumbTip			IndexMCP			IndexPIP			IndexTip			MiddleMCP			MiddlePIP			MiddleTip			RingMCP			RingPIP			RingTip			PinkyMCP			PinkyPIP			PinkyTip			BackHand1			BackHand2			BackHand3	
		X0	Y0	Z0	X1	Y1	Z1	X2	Y2	Z2	X3	Y3	Z3	X4	Y4	Z4	X5	Y5	Z5	X6	Y6	Z6	X7	Y7	Z7	X8	Y8	Z8	X9	Y9	Z9	X10	Y10	Z10	X11	Y11	Z11	X12	Y12	Z12	X13	Y13	Z13	X14	Y14	Z14	X15	Y15	Z15	X16	Y16	Z16	X17	Y17	Z17	X18	Y18	Z18	
215	1.79167	-185.884	-11.4176	10.8069	-169.485	1.51173	-10.0686	-156.513	14.7056	-32.4017	-145.423	21.9114	-46.3676	-228.511	8.3708	-45.2721	-231.885	22.3419	-70.3522	-230.957	28.503	-95.7156	-250.706	-6.92694	-52.7173	-253.752	1.98971	-77.3726	-254.8	5.07843	-114.479	-255.555	-29.5072	-51.4234	-262.072	-32.4138	-73.4925	-260.743	-31.1186	-100.529	-255.289	-58.1917	-42.0613	-257.76	-60.9241	-61.8451	-262.118	-65.503	-86.3169	-245.947	-37.6825	2.83306	-236.572	-41.9947	32.7161	-223.964	-12.2864	13.843	
216	1.8	-178.657	-18.4988	18.2348	-160.468	-5.28733	-7.49293	-144.688	6.19082	-25.2842	-133.336	14.2195	-43.3229	-214.909	14.1583	-42.7073	-215.32	29.6916	-70.0397	-212.87	37.3885	-91.6135	-236.178	3.26417	-47.3716	-241.763	14.8682	-77.5626	-243.63	14.7772	-110.796	-247.25	-21.5159	-46.2591	-254.93	-19.0361	-73.6961	-254.472	-17.052	-101.635	-252.556	-44.0504	-41.3664	-256.81	-47.6179	-61.3368	-259.951	-48.9989	-86.3344	-240.678	-26.9254	3.98291	-237.359	-40.255	30.1135	-215.596	-12.7535	16.3532	
217	1.80833	-169.493	-20.0007	17.7778	-150.913	-11.654	-2.47398	-134.517	-4.33448	-19.5213	-122.542	2.27074	-37.8703	-198.78	17.734	-41.2099	-196.893	30.9264	-62.1847	-190.155	41.4265	-87.3691	-225.738	12.1027	-49.1234	-226.143	22.5395	-73.8904	-226.71	26.4051	-106.934	-239.728	-10.3582	-48.376	-246.608	-6.96315	-71.1642	-243.887	-2.81563	-101.923	-247.724	-35.3232	-39.142	-255.386	-36.8803	-61.6854	-254.652	-36.7168	-88.3127	-234.862	-20.1403	4.63978	-232.878	-35.4033	31.6294	-207.781	-11.6623	17.9801	
218	1.81667	-164.078	-26.8773	19.9614	-143.112	-21.8126	3.69412	-124.454	-13.3114	-16.9623	-108.551	-10.1521	-32.6328	-184.272	14.8816	-38.7585	-178.231	28.5167	-60.5838	-168.971	38.6396	-85.4371	-212.536	15.0104	-46.9305	-211.015	24.5714	-71.3974	-207.625	30.8524	-106.608	-229.909	-5.14583	-44.4123	-232.27	4.16073	-72.0532	-233.385	3.58263	-97.3599	-243.704	-27.3491	-36.9831	-245.45	-22.3726	-62.9283	-248.723	-22.6753	-87.6546	-226.988	-15.864	5.68414	-230.32	-28.4287	31.5475	-199.501	-11.2283	22.1547	
219	1.825	-158.921	-33.756	22.0649	-134.236	-30.8845	7.07349	-113.032	-23.8983	-15.6428	-100.21	-26.3661	-28.2945	-168.842	10.5914	-37.7582	-160.652	23.2566	-61.0331	-147.987	30.0527	-88.5312	-196.22	13.0416	-45.8259	-194.967	24.5387	-72.1061	-189.852	29.428	-105.538	-217.986	1.07732	-48.2677	-217.472	7.60267	-69.6043	-219.635	9.43348	-100.043	-232.196	-18.5317	-38.1468	-240.971	-15.6317	-59.7219	-240.39	-13.9378	-83.4487	-218.246	-13.2838	3.88074	-220.982	-22.0258	31.8747	-190.017	-11.7851	18.8636	
220	1.83333	-152.332	-38.7241	24.9622	-128.571	-38.4746	9.2352	-105.237	-37.4784	-8.66539	-92.3652	-37.8343	-26.6933	-157.308	4.52811	-39.4591	-142.833	14.5583	-63.8351	-131.57	18.3381	-85.0354	-180.567	9.82183	-45.5367	-174.671	21.392	-73.9716	-168.691	23.9564	-108.825	-206.955	2.87043	-48.5296	-208.682	8.11229	-71.2178	-206.374	8.99789	-98.7371	-228.391	-12.5722	-40.9945	-231.812	-9.27996	-59.5972	-231.165	-8.25516	-86.2699	-212.32	-10.9637	1.65775	-212.108	-20.4903	28.7123	-178.998	-12.8246	18.4535	
221	1.84167	-146.307	-42.9501	27.325	-121.721	-45.2581	10.082	-99.1598	-46.2623	-9.37066	-84.3567	-49.8512	-23.4556	-148.877	-2.11668	-39.7298	-134.133	4.72487	-62.6266	-121.627	5.43478	-88.0253	-169.402	7.3159	-46.942	-165.715	15.3051	-76.7061	-158.304	15.0783	-111.082	-194.306	0.392412	-46.8995	-196.417	6.29884	-72.9291	-196.526	5.93189	-102.688	-216.245	-11.049	-39.7635	-223.419	-7.27778	-60.3078	-226.746	-7.2728	-86.1619	-201.048	-10.1884	1.54236	-209.731	-18.3699	34.2768	-169.715	-14.3551	18.6346	
222	1.85	-143.37	-46.734	27.4745	-117.81	-51.6337	10.4234	-95.0004	-54.3695	-8.22136	-79.5889	-59.9277	-24.0683	-139.908	-10.1488	-38.5795	-125.365	-6.84039	-62.5814	-114.493	-8.1444	-87.2645	-162.701	0.191801	-46.1264	-154.779	6.6643	-78.5904	-150.589	4.54613	-112.432	-185.787	-2.54471	-48.1146	-188.06	1.93189	-72.4939	-189.662	-0.195539	-101.034	-210.644	-14.7703	-34.6921	-216.769	-7.5339	-62.0792	-219.656	-8.09677	-86.8481	-196.044	-9.92328	2.48042	-200.025	-18.1658	32.6671	-167.631	-18.5025	21.7421	
223	1.85833	-138.457	-50.1645	29.5968	-118.564	-58.9634	15.9381	-98.2725	-62.5954	-4.84963	-78.447	-69.962	-17.6457	-134.284	-17.4328	-40.8645	-122.941	-15.9564	-65.8637	-113.085	-20.7638	-91.9648	-159.459	-5.20074	-50.2146	-148.664	-2.25045	-77.411	-142.226	-6.51235	-112.808	-179.615	-8.01915	-46.8256	-180.845	-4.90752	-75.6562	-180.905	-8.40966	-99.8761	-203.163	-13.2464	-38.1458	-206.67	-10.1262	-60.8005	-212.562	-11.2879	-85.989	-186.052	-10.1346	4.16054	-197.187	-13.6782	31.3337	-162.174	-21.2246	20.6806	
224	1.86667	-137.768	-52.6751	30.1425	-116.492	-60.6468	13.0039	-91.8695	-70.4674	0.663004	-76.774	-77.5986	-13.1462	-129.808	-23.3571	-41.4366	-118.02	-24.4797	-68.3645	-108.587	-33.8099	-92.3449	-154.104	-10.4029	-52.3344	-146.972	-9.08405	-81.7766	-137.805	-17.5157	-112.625	-178.369	-13.6896	-45.0456	-178.634	-9.68278	-76.1859	-176.452	-15.942	-100.941	-202.386	-15.464	-37.237	-206.391	-13.3133	-59.8925	-207.193	-16.1228	-86.6637	-185.887	-12.0001	5.2757	-191.696	-14.1326	34.3733	-154.525	-22.1792	20.4347	
225	1.875	-133.903	-54.3902	33.6884	-111.647	-64.7039	20.9662	-96.1077	-73.8884	3.96042	-74.5257	-83.2324	-11.1712	-127.466	-29.8558	-44.4543	-113.49	-36.5616	-68.3008	-111.856	-43.4935	-91.0205	-149.239	-18.9504	-48.6221	-145.169	-19.22	-80.4269	-137.499	-30.3173	-110.488	-175.241	-16.7052	-50.3185	-170.46	-18.3633	-75.9621	-174.622	-25.6137	-100.792	-195.796	-20.8889	-38.4654	-201.306	-19.7482	-61.0961	-205.485	-22.5743	-86.8984	-180.896	-12.7613	5.11537	-188.268	-16.5279	35.1198	-152.305	-24.8572	21.3548	
226	1.88333	-131.516	-55.6838	34.19	-113.84	-68.0406	19.5972	-88.7908	-80.5334	4.70883	-74.4725	-90.372	-8.86417	-127.004	-39.9764	-42.5803	-115.008	-47.6942	-68.9844	-110.568	-59.2759	-90.3989	-146.964	-27.1754	-52.59	-141.293	-32.1557	-83.9966	-136.672	-46.4392	-112.601	-169.783	-25.1163	-50.7667	-172.671	-27.1236	-76.7322	-172.173	-38.6451	-104.11	-196.643	-23.9114	-39.6564	-201.927	-25.589	-62.2446	-201.281	-30.9625	-83.7566	-180.026	-14.713	-0.0262594	-182.056	-14.9038	31.1466	-151.592	-25.3211	21.778	
227	1.89167	-134.609	-56.7755	35.8851	-113.788	-70.2121	22.0162	-93.85	-84.9347	6.65126	-77.8528	-97.1055	-5.9772	-127.558	-48.1264	-41.8931	-115.317	-58.4225	-65.647	-112.611	-76.2354	-89.9327	-145.189	-35.933	-53.3229	-139.114	-43.5108	-84.096	-137.284	-59.7658	-112.051	-172.896	-30.8746	-53.3869	-170.729	-36.8365	-78.6791	-174.904	-49.9104	-104.455	-194.159	-31.5845	-36.2919	-200.52	-31.7999	-58.7095	-205.646	-37.0522	-83.1141	-173.129	-17.5093	-1.47263	-182.567	-15.7891	29.2525	-145.169	-27.2424	18.3671	
